<svg xmlns="http://www.w3.org/2000/svg" role="img" width="24" height="21" style=""><rect id="backgroundrect" width="100%" height="100%" x="0" y="0" fill="none" stroke="none"/><title>Microsoft Outlook icon</title><g class="currentLayer" style=""><title>Layer 1</title><path d="M7.88,10.540000059604644 q0,0.45 -0.11000000000000003,0.8700000000000002 q-0.1,0.4100000000000001 -0.3300000000000001,0.7400000000000002 q-0.22000000000000006,0.3300000000000001 -0.5800000000000002,0.52 q-0.3700000000000001,0.2 -0.8700000000000002,0.2 t-0.8500000000000002,-0.2 q-0.3500000000000001,-0.21000000000000005 -0.5700000000000002,-0.55 q-0.22000000000000006,-0.3300000000000001 -0.3300000000000001,-0.7500000000000002 q-0.1,-0.4200000000000001 -0.1,-0.8600000000000002 t0.1,-0.8700000000000002 q0.1,-0.4300000000000001 0.3400000000000002,-0.7600000000000002 q0.22000000000000006,-0.3400000000000002 0.5900000000000002,-0.54 q0.3600000000000001,-0.2 0.8700000000000002,-0.2 t0.8600000000000002,0.2 q0.3500000000000001,0.21000000000000005 0.5700000000000002,0.55 q0.22000000000000006,0.3400000000000002 0.3100000000000001,0.77 q0.1,0.4300000000000001 0.1,0.8800000000000002 zM24,10.500000059604645 v9.38 q0,0.46 -0.3300000000000001,0.8 q-0.3300000000000001,0.3200000000000001 -0.8,0.3200000000000001 H7.13 q-0.46,0 -0.8,-0.3300000000000001 q-0.3200000000000001,-0.3300000000000001 -0.3200000000000001,-0.8 V16.500000059604645 H1 q-0.4100000000000001,0 -0.7000000000000002,-0.3000000000000001 q-0.3000000000000001,-0.2900000000000001 -0.3000000000000001,-0.7000000000000002 V5.500000059604645 q0,-0.4100000000000001 0.3000000000000001,-0.7000000000000002 Q0.5800000000000002,4.500000059604645 1,4.500000059604645 h6.5 V1.0500000596046446 q0,-0.4400000000000001 0.3000000000000001,-0.7500000000000002 q0.3000000000000001,-0.3000000000000001 0.7500000000000002,-0.3000000000000001 h12.9 q0.4400000000000001,0 0.7500000000000002,0.3000000000000001 q0.3000000000000001,0.3000000000000001 0.3000000000000001,0.7500000000000002 V9.350000059604644 l1.24,0.7200000000000002 h0.010000000000000004 q0.1,0.07 0.18000000000000005,0.18000000000000005 q0.07,0.12000000000000002 0.07,0.25 zm-6,-8.25 v3 h3 v-3 zm0,4.5 v3 h3 v-3 zm0,4.5 v1.83 l3.05,-1.83 zm-5.25,-9 v3 h3.75 v-3 zm0,4.5 v3 h3.75 v-3 zm0,4.5 v2.03 l2.41,1.5 l1.34,-0.8 v-2.73 zM9,2.2500000596046448 V4.500000059604645 h2 l0.13,0.010000000000000004 l0.12000000000000002,0.040000000000000015 v-2.3 zM5.98,14.480000059604645 q0.9,0 1.6,-0.3000000000000001 q0.7000000000000002,-0.3200000000000001 1.19,-0.8600000000000002 q0.4800000000000001,-0.55 0.7300000000000002,-1.28 q0.25,-0.7400000000000002 0.25,-1.61 q0,-0.8300000000000002 -0.25,-1.55 q-0.24000000000000005,-0.7100000000000002 -0.7100000000000002,-1.24 t-1.15,-0.8300000000000002 q-0.6800000000000004,-0.3000000000000001 -1.55,-0.3000000000000001 q-0.92,0 -1.6400000000000001,0.3000000000000001 q-0.7100000000000002,0.3000000000000001 -1.2,0.8500000000000002 q-0.5,0.54 -0.7500000000000002,1.3 q-0.25,0.7400000000000002 -0.25,1.6300000000000003 q0,0.8500000000000002 0.26,1.56 q0.26,0.7200000000000002 0.7400000000000002,1.23 q0.4800000000000001,0.52 1.17,0.81 q0.6900000000000004,0.3000000000000001 1.56,0.3000000000000001 zM7.5,19.500000059604645 h12.39 L12,14.580000059604643 V15.500000059604645 q0,0.4100000000000001 -0.3000000000000001,0.7000000000000002 q-0.2900000000000001,0.3000000000000001 -0.7000000000000002,0.3000000000000001 H7.5 zm15,-0.13 v-7.24 l-5.9,3.54 z" id="svg_1" class="selected" fill="#ffffff" fill-opacity="1"/></g></svg>